<svg id="icon_formateurs" width="15" data-name="icon formateurs" xmlns="http://www.w3.org/2000/svg" viewBox="0 0 15 23.25">
<g id="Header">
<path d="M15,7.5c0,.3-.05,.58-.16,.84s-.26,.49-.45,.7-.41,.37-.66,.49-.53,.2-.81,.21c.2,.23,.34,.47,.43,.74s.13,.54,.12,.81c-.02,.28-.08,.55-.19,.81s-.27,.5-.47,.71c-.16,.15-.33,.27-.52,.38s-.38,.18-.59,.22c-.2,.05-.4,.06-.6,.05s-.41-.05-.6-.11v9.9l-3-3-3,3V13.35c-.2,.06-.4,.1-.6,.11s-.41,0-.6-.05c-.2-.05-.4-.12-.59-.22s-.36-.23-.52-.38c-.2-.21-.36-.45-.47-.71s-.17-.53-.19-.81c0-.27,.03-.54,.12-.81s.23-.51,.43-.74c-.29-.02-.56-.09-.81-.21s-.47-.29-.66-.49-.34-.44-.45-.7-.16-.54-.16-.84,.05-.58,.16-.84,.26-.49,.45-.7,.41-.37,.66-.49,.53-.2,.81-.21c-.2-.23-.34-.47-.43-.74s-.13-.54-.12-.81c.02-.28,.08-.55,.19-.81s.27-.5,.47-.71c.21-.2,.45-.36,.71-.47s.53-.17,.81-.19c.27,0,.54,.03,.81,.12s.51,.23,.74,.43c.02-.29,.09-.56,.21-.81s.29-.47,.49-.66,.44-.34,.7-.45,.54-.16,.84-.16,.58,.05,.84,.16,.49,.26,.7,.45,.37,.41,.49,.66,.2,.53,.21,.81c.23-.2,.47-.34,.74-.43s.54-.13,.81-.12c.28,.02,.55,.08,.81,.19s.5,.27,.71,.47c.2,.21,.36,.45,.47,.71s.17,.53,.19,.81c0,.27-.03,.54-.12,.81s-.23,.51-.43,.74c.29,.02,.56,.09,.81,.21s.47,.29,.66,.49,.34,.44,.45,.7,.16,.54,.16,.84Zm-7.5,4.5c.62,0,1.21-.12,1.75-.35s1.02-.55,1.44-.96c.41-.41,.73-.89,.96-1.44s.35-1.13,.35-1.75-.12-1.21-.35-1.75-.55-1.02-.96-1.44c-.41-.41-.89-.73-1.44-.96s-1.13-.35-1.75-.35-1.21,.12-1.75,.35-1.02,.55-1.44,.96c-.41,.41-.73,.89-.96,1.44s-.35,1.13-.35,1.75,.12,1.21,.35,1.75,.55,1.02,.96,1.44c.41,.41,.89,.73,1.44,.96s1.13,.35,1.75,.35Z"></path>
</g>
</svg>