<svg width="21" id="icon_pro" data-name="icon pro" xmlns="http://www.w3.org/2000/svg" viewBox="0 0 21 19.5">
<g id="Header">
<path d="M12,13.56c1.27,.11,2.46,.34,3.56,.69s2.05,.78,2.85,1.31c.8,.53,1.44,1.13,1.9,1.8s.69,1.39,.69,2.14H0c0-.76,.23-1.47,.69-2.14s1.09-1.27,1.9-1.8c.8-.52,1.76-.96,2.85-1.31s2.28-.58,3.56-.69v-1.23c-.41-.23-.8-.55-1.17-.94s-.68-.84-.96-1.33-.49-1.02-.64-1.59-.23-1.14-.23-1.72c0-.93,.02-1.8,.07-2.62s.21-1.54,.49-2.14,.73-1.09,1.34-1.45,1.48-.53,2.6-.53,1.99,.18,2.6,.53,1.05,.84,1.34,1.45,.45,1.32,.49,2.14,.07,1.7,.07,2.62c0,.58-.08,1.15-.23,1.72s-.37,1.1-.64,1.59-.59,.94-.96,1.33-.75,.71-1.17,.94v1.23Z"></path>
</g>
</svg>